<?xml version="1.0" encoding="UTF-8"?>
<svg width="256" height="256" version="1.1"
     xmlns="http://www.w3.org/2000/svg"
     xmlns:xlink="http://www.w3.org/1999/xlink">
  <defs>
    <linearGradient id="Gradient" x1="0" x2="0" y1="0" y2="1">
      <stop offset="0%" style="stop-color:#62A0EA;stop-opacity:1" />
      <stop offset="100%" style="stop-color:#3D3846;stop-opacity:1" />
    </linearGradient>
    <filter id="alpha-to-white">
      <feColorMatrix in="SourceGraphic" type="matrix"
                     values="0 0 0 0 1 0 0 0 0 1 0 0 0 0 1 0 0 0 1 0"/>
    </filter>
    <g id="child-svg"><svg xmlns="http://www.w3.org/2000/svg" height="24px" viewBox="0 -960 960 960" width="24px" fill="#FFFFFF"><path d="M127-167q-47-47-47-113t47-113q47-47 113-47 23 0 42.5 5.5T320-418v-342l480-80v480q0 66-47 113t-113 47q-66 0-113-47t-47-113q0-66 47-113t113-47q23 0 42.5 5.5T720-498v-165l-320 63v320q0 66-47 113t-113 47q-66 0-113-47Z" /></svg></g>
  </defs>
  <rect
      width="256"
      height="256"
      fill="url(#Gradient)"
      ry="128"
      x="0"
      y="0" />
  <use xlink:href="#child-svg" filter="url(#alpha-to-white)"
       transform="matrix(5,0,0,5,64,64)" />
</svg>